<svg id="Layer_1" data-name="Layer 1" xmlns="http://www.w3.org/2000/svg" viewBox="0 0 177.49 99.6"><defs><style>.cls-1{fill:#00b9f2;}.cls-2{fill:#002d62;}</style></defs><title>logo</title><path class="cls-1" d="M460.2,283.74L483,266.2l-7.59,23c-1.54,4.68-7.11,8.47-12.44,8.47s-8.4-3.79-6.85-8.47a11.87,11.87,0,0,1,4.11-5.49" transform="translate(-342.68 -241.84)"/><path class="cls-2" d="M463.82,241.84a38.33,38.33,0,0,0-19.38,5.66c-3.56-3.53-9-5.66-15.64-5.66-14.94,0-30.61,10.67-34.93,23.79l-10.53,31.94h19.16L413,265.63c1.27-3.84,5.85-7,10.23-7s6.9,3.13,5.63,7l-10.53,31.94h19.16L448,265.63c1.27-3.84,5.85-7,10.23-7s6.9,3.13,5.63,7l-4.63,14,24.83-19.12c0.86-10.68-7.34-18.7-20.29-18.7" transform="translate(-342.68 -241.84)"/><path class="cls-1" d="M347.92,318.78a6.13,6.13,0,0,1,5.1-2.36,5.87,5.87,0,0,1,5,2.11,7.49,7.49,0,0,1,5.34-2.11c3,0,4.48,1.49,5,2.6a10.29,10.29,0,0,1,.48,4.16V335h-5.24v-9.49a13.81,13.81,0,0,0-.21-3.08,2.32,2.32,0,0,0-2.31-1.63,2.83,2.83,0,0,0-1.72.55c-1,.8-1,1.84-1,3.81V335h-5.24v-10.7a4.72,4.72,0,0,0-.52-2.56,2.61,2.61,0,0,0-2.07-.94,2.73,2.73,0,0,0-1.45.42c-1.17.8-1.21,2.25-1.21,3.5V335h-5.24v-18h5.24v1.87Z" transform="translate(-342.68 -241.84)"/><path class="cls-1" d="M379.65,327.44c-0.9.35-2.27,0.87-2.27,2.25a1.93,1.93,0,0,0,2,1.84,3.46,3.46,0,0,0,1.83-.59c1.76-1.11,1.83-2.77,1.86-4.64ZM372.93,322a5,5,0,0,1,1.89-4,9.2,9.2,0,0,1,5.89-1.59c2.21,0,7.55.52,7.55,5.2v10.53c0,1.94.1,2.22,0.52,2.84h-5.2V333.3a8.44,8.44,0,0,1-5.51,2.15,5.47,5.47,0,0,1-5.89-5.51,5.84,5.84,0,0,1,3.79-5.2,46,46,0,0,1,7.1-1.66v-1c-0.07-.83-0.14-2.22-2-2.22-2.34,0-2.65,1.45-2.79,2.11h-5.31Z" transform="translate(-342.68 -241.84)"/><path class="cls-1" d="M408.24,330.7a10.3,10.3,0,0,1-2.83,3.22,8.91,8.91,0,0,1-5.17,1.63c-3.44,0-8.92-2.08-8.92-9.46,0-5.27,3-9.7,9-9.7a8.59,8.59,0,0,1,7.68,4.33L404.1,323a4.41,4.41,0,0,0-1.52-1.91,3.51,3.51,0,0,0-2-.62c-2.86,0-3.82,3.29-3.82,5.47,0,2.39,1.17,5.4,4,5.4a3.52,3.52,0,0,0,2.69-1.25,3.81,3.81,0,0,0,.79-1.46Z" transform="translate(-342.68 -241.84)"/><path class="cls-1" d="M415.38,318.51a5.17,5.17,0,0,1,1.79-1.42,8.7,8.7,0,0,1,3.27-.66,6.79,6.79,0,0,1,3.2.73c1.89,1,2.38,2.63,2.38,5.44V335h-5.27V324.78a7.3,7.3,0,0,0-.24-2.7,2.41,2.41,0,0,0-2.38-1.39c-2.79,0-2.79,2.25-2.79,4.5V335H410v-18h5.34v1.59Z" transform="translate(-342.68 -241.84)"/><path class="cls-1" d="M436.79,327.44c-0.89.35-2.27,0.87-2.27,2.25a1.93,1.93,0,0,0,2,1.84,3.46,3.46,0,0,0,1.83-.59c1.76-1.11,1.83-2.77,1.86-4.64ZM430.08,322a5,5,0,0,1,1.89-4,9.2,9.2,0,0,1,5.89-1.59c2.21,0,7.54.52,7.54,5.2v10.53c0,1.94.1,2.22,0.52,2.84h-5.2V333.3a8.44,8.44,0,0,1-5.51,2.15,5.47,5.47,0,0,1-5.89-5.51,5.84,5.84,0,0,1,3.79-5.2,46,46,0,0,1,7.1-1.66v-1c-0.07-.83-0.14-2.22-2-2.22-2.34,0-2.65,1.45-2.79,2.11h-5.31Z" transform="translate(-342.68 -241.84)"/><path class="cls-1" d="M460.33,316.88h5.3V335h-5.3v-1.73a4.88,4.88,0,0,1-1.79,1.42,7.41,7.41,0,0,1-3.41.83c-1.17,0-3.34-.17-4.58-1.9-0.93-1.32-1.1-2.39-1.1-5.34V316.88h5.34V328.1a3.6,3.6,0,0,0,.41,2.15,2.62,2.62,0,0,0,2.1.9,3.54,3.54,0,0,0,1.83-.45,2.6,2.6,0,0,0,1.21-2.56V316.88Z" transform="translate(-342.68 -241.84)"/><path class="cls-1" d="M474.3,325.4c0,1.52.1,4.68,3.38,4.68,2.69,0,3.31-2.11,3.31-4.68a7.57,7.57,0,0,0-.65-3.53,3.15,3.15,0,0,0-2.89-1.32c-2.51.1-3.14,2.29-3.14,4.85m6.72,7.17a7.62,7.62,0,0,1-4.75,1.52,7.28,7.28,0,0,1-4.1-1.18c-2.41-1.56-3.34-4.37-3.34-7.48,0-3.64,1.69-8.87,7.65-8.87a6.24,6.24,0,0,1,4.82,2v-1.7h5v17.39c-0.07,2-.14,4.3-2.76,5.82a12.88,12.88,0,0,1-6.13,1.39c-3.58,0-5.93-1.25-6.89-2.25A5.6,5.6,0,0,1,469.1,335h5.48a2.68,2.68,0,0,0,1.55,2.6,3.61,3.61,0,0,0,1.69.35c3.2,0,3.2-1.91,3.2-3.39v-1.94Z" transform="translate(-342.68 -241.84)"/><path class="cls-1" d="M495.72,310.47v8.31a6.89,6.89,0,0,1,5.17-2.39,6,6,0,0,1,3.82,1.28c1.58,1.35,1.86,3,1.86,5.4V335H501.3V325.5a8.88,8.88,0,0,0-.24-2.77,2.5,2.5,0,0,0-2.48-1.8,2.74,2.74,0,0,0-2.17,1c-0.69.93-.69,2.42-0.69,4v9h-5.31V310.47h5.31Z" transform="translate(-342.68 -241.84)"/><path class="cls-1" d="M511.41,311.65h5.27v5.65h3.48v3.26h-3.51v8.14c0,1.11,0,2,1.38,2l1.89-.07v4.16a16.87,16.87,0,0,1-2.79.28c-1.83,0-3.83-.1-5-1.77-0.72-1.07-.76-2.36-0.76-4.09v-8.73H508.8v-3.26h2.62v-5.61Z" transform="translate(-342.68 -241.84)"/></svg>