<?xml version="1.0" encoding="UTF-8"?>
<svg id="Layer_1" xmlns="http://www.w3.org/2000/svg" version="1.1" viewBox="0 0 796.33 295.62">
  <!-- Generator: Adobe Illustrator 29.7.1, SVG Export Plug-In . SVG Version: 2.1.1 Build 8)  -->
  <defs>
    <style>
      .st0 {
        fill: #c42227;
        stroke: #fff;
        stroke-miterlimit: 10;
        stroke-width: 11.34px;
      }

      .st1 {
        fill: #fff;
      }
    </style>
  </defs>
  <path class="st1" d="M494.39,16.26l-136.82,263.11h-95.1l-15.03-138.7-72.17,138.7h-95.1L48.61,16.26h87.58l16.91,149.97L231.28,16.26h81.56l15.03,152.23L407.18,16.26h87.2Z"/>
  <path class="st0" d="M736.07,195.55c0,58.26-55.63,83.82-122.91,83.82h-151.85l52.62-263.11h139.45c62.39,0,94.34,22.93,94.34,62.77,0,30.45-18.04,52.62-46.98,65.03,22.55,9.77,35.33,27.44,35.33,51.49ZM648.12,193.29c0-11.65-10.15-17.29-21.8-17.29h-57.13l-8.27,41.35h57.13c17.29,0,30.07-7.89,30.07-24.06ZM588.73,78.28l-7.89,39.09h45.1c20.3,0,29.32-8.65,29.32-22.93,0-10.9-8.64-16.16-23.3-16.16h-43.22Z"/>
</svg>